<svg xmlns="http://www.w3.org/2000/svg" viewBox="0 0 166.09 108.35"><defs><style>.a{fill:#fff;}</style></defs><path class="a" d="M166.09,48.68c-4.44-9.3-2.4-22.58-2.4-22.58H142.35c-2.4,0-4.5,2.65-6.16,1.22s2.24-3.61,2.3-6.07C122.87,5.63,96.38,0,83.05,0,68.46,0,43.22,5.63,27.6,21.25c.06,2.46,4,4.64,2.3,6.07s-3.76-1.22-6.16-1.22H2.4s2,13.28-2.4,22.58a6.1,6.1,0,0,1,4.64,5.5A6.09,6.09,0,0,1,0,59.67C4.44,69,2.4,82.25,2.4,82.25H23.74c2.4,0,4.5-2.65,6.16-1.22s-2.24,3.62-2.3,6.07c15.62,15.62,40.86,21.25,55.45,21.25,13.33,0,39.82-5.63,55.44-21.25-.06-2.45-4-4.64-2.3-6.07s3.76,1.22,6.16,1.22h21.34s-2-13.28,2.4-22.58c-2.73-.79-4.68-3.1-4.68-5.49S163.36,49.47,166.09,48.68Z"/></svg>