<svg xmlns="http://www.w3.org/2000/svg" viewBox="0 0 511 511"><defs><style>.a{fill:#291029;}</style></defs><path class="a" d="M317.11,199.53l-.75.1q.21-20.7.44-41.41c10.34.19,14.39,5.78,14.24,19.08-.07,6.72-1.61,11.93-4.69,16C322.55,198.3,319.26,199.26,317.11,199.53ZM511,259.05A255.24,255.24,0,0,1,255.62,511c-1.22,0-2.45,0-3.67,0A255.57,255.57,0,0,1,159.33,18.71,255.4,255.4,0,0,1,511,259.05ZM488.27,161A251,251,0,0,0,259,4.36l-3.6,0A251.23,251.23,0,0,0,154.54,485.55,251.31,251.31,0,0,0,488.27,161ZM202.49,219c2.78-6.17,4.21-14.57,4.27-25s-1.66-18.69-5.09-24.25c-2.54-4.12-5.67-6.26-9.72-6.54l-.27,63.9,3.22-.58C197.17,226.13,199.86,224.9,202.49,219Zm273.24-53A237.7,237.7,0,0,1,35.27,344.94,237.7,237.7,0,0,1,475.73,166.06Zm-215,192.22q29.07-10.15,58.45-19.34l.16-14.08c-.38-.71-.56-1.07-.94-1.79-2.77-5.35-3.32-9.09-3.3-11.26q.23-20.52.44-41,8.87,31.95,18.1,63.82,25.51-7.5,51.34-14l.18-13.92-1.84-2a36.51,36.51,0,0,1-6.85-10.64q-11.34-29.83-22.08-59.87c6.66-6.25,12.53-14.41,17.7-23.83,6.43-11.71,10.3-28,10.35-41,.06-16.11-4.16-33.16-15.34-46.06A54.9,54.9,0,0,0,325,104.8l-62.12.18c-.05,6.15-.07,9.22-.13,15.37.42.92.63,1.38,1,2.3,2.94,6.5,3.54,10.51,3.52,12.77l-1.65,190.77c0,2.25-.68,6.49-3.71,14l-1.07,2.68Zm-123,50.37q29.28-13.38,59-25.82c0-7,.05-10.57.08-17.61l-1.6-2.38c-2.65-3.94-4-7.95-4-11.52l.27-64.9,3.47-.93c12.23-3.27,23.31-10.09,33-19.42s18.23-23.39,22.81-35.46c5.4-14.22,7.37-29.4,8.12-44.43A103.76,103.76,0,0,0,252,145.05c-4.85-12.14-11.76-22-20.68-29.06a48.56,48.56,0,0,0-30.89-10.79l-62.66.24v18.3l1,2.7c3.2,8.58,3.67,13.32,3.67,15.41q0,114.14-.08,228.25c0,2.71-.62,7.79-3.55,16.91l-1,3.24Zm255.5-68.18c-85.77,11.86-166.5,39.31-240.93,83.7l55.52-11.09a340.25,340.25,0,0,1,129.33-6.71Z"/></svg>