<svg xmlns="http://www.w3.org/2000/svg" viewBox="0 0 783.95 374.14"><defs><style>.a{fill:#384146;}</style></defs><path class="a" d="M0,299.93V286.27c.29-1,.43-1.45.72-2.41,2-6.78,2.47-10.55,2.47-12.56l.06-169.55c0-1.56-.33-5.08-2.55-11.45l-.7-2V74.7q21.81-.09,43.61-.18a32.56,32.56,0,0,1,21.5,8c6.21,5.23,11,12.57,14.39,21.59a81.89,81.89,0,0,1,4.76,30.56c-.52,11.16-1.89,22.44-5.65,33-3.19,9-9.14,19.39-15.88,26.34S48.3,206,39.8,208.45l-2.42.69q-.09,24.11-.19,48.2A16.35,16.35,0,0,0,40,265.91c.44.71.67,1.06,1.11,1.76l0,13.09Q20.35,290,0,299.93ZM39.79,164.66c1.58-.31,3.45-1.22,5.28-5.58C47,154.5,48,148.26,48,140.49s-1.15-13.88-3.54-18c-1.77-3.07-4-4.65-6.77-4.86l-.18,47.47Zm96.59,80.27q-6.45-23.66-12.59-47.41-.17,15.24-.31,30.48a19.08,19.08,0,0,0,2.3,8.36l.65,1.34c-.05,4.18-.07,6.27-.11,10.45Q105.85,255,85.64,262.51c0-4.56,0-6.84.09-11.41l.75-2c2.1-5.61,2.56-8.76,2.57-10.43Q89.64,167.82,90.2,97c0-1.67-.4-4.65-2.44-9.48L87,85.77c0-4.56.06-6.85.09-11.41l43.23-.14A37.16,37.16,0,0,1,159.67,88c7.78,9.58,10.72,22.24,10.68,34.21,0,9.68-2.73,21.78-7.21,30.48a70.6,70.6,0,0,1-12.32,17.69q7.52,22.31,15.37,44.48a27.37,27.37,0,0,0,4.77,7.9c.51.59.76.89,1.27,1.47,0,4.14-.07,6.21-.11,10.34Q154.14,239.36,136.38,244.93ZM124.84,144.59c1.5-.2,3.79-.91,6.44-4.64,2.14-3,3.21-6.88,3.26-11.87.1-9.88-2.72-14-9.91-14.17q-.16,15.38-.31,30.75ZM216,224l.1-9-.62-1.17a51.1,51.1,0,0,1-2.32-4.83,6.58,6.58,0,0,1-.42-2.51l1.32-114.23c0-1,.38-3.39,2.77-7.69.31-.56.47-.85.79-1.41l.1-9.13q-20.68,0-41.36.09c-.05,3.82-.07,5.73-.11,9.56.24.55.37.82.61,1.37,1,2.3,1.82,4.17,2.31,5.56a8,8,0,0,1,.42,2.72q-.71,60.23-1.4,120.45c0,1.07-.39,3.61-2.78,8.71-.32.68-.48,1-.79,1.69,0,3.89-.07,5.84-.11,9.73Q195.19,228.55,216,224Zm94.63-14.72.84-119a14.13,14.13,0,0,1,2.37-6.93l.76-1.25.05-8.2-41.55,0L273,82.79l1.12,1.49a10.36,10.36,0,0,1,2.26,6.51c-.07,7.93-.11,11.89-.18,19.81Q266.8,92.36,257.7,73.94L223.2,74l-.1,9.06.75,1.38a25.83,25.83,0,0,1,2,4.34,10,10,0,0,1,.43,3.13q-.63,56.15-1.27,112.29c0,1-.38,3.29-2.74,7.76l-.83,1.57c0,3.73-.06,5.59-.11,9.31q20.88-4.18,41.85-7.59c0-3.61.06-5.42.09-9l-1-1.31a10.29,10.29,0,0,1-2.4-6.27l.45-44.18q16,28.53,32.66,56.69C300,210.31,303.57,209.92,310.64,209.23Zm75.49-4.18a41.13,41.13,0,0,0,11.67-3.92l2.58-1.46,2.07-32-9.2,0-1.61,1.08a65.22,65.22,0,0,1-9.22,4.86,27.83,27.83,0,0,1-11,2.36,11.66,11.66,0,0,1-8.3-3.07c-2.9-2.51-5.25-6.3-7-11.28a56.37,56.37,0,0,1-2.75-18.76,83.9,83.9,0,0,1,3-23.22c1.83-6.16,4.29-10.88,7.32-14a11.2,11.2,0,0,1,8.29-3.84,14.87,14.87,0,0,1,8.63,3,56.87,56.87,0,0,1,8.55,7l2.42,2.53,9.12-2q-.72-16.35-1.46-32.7L397.55,78c-1.82-1.63-4.85-2.77-10.47-3.93A84.47,84.47,0,0,0,372,72.63c-9.49-.19-21.91,3.7-29.51,9.3-8.82,6.5-14.89,16-19.22,25.54-4.95,10.91-7,24.53-6.68,36.65.28,11.11,1.76,22.81,6.32,33.2,3.58,8.15,11.48,17.54,19.14,22.17,7.9,4.78,19.91,7.83,29.31,7.22A82.83,82.83,0,0,0,386.13,205.05Zm62.23,2.11c0-3.19,0-4.79,0-8l-.65-1.19c-1.09-2-1.9-3.64-2.42-4.85a5.71,5.71,0,0,1-.46-2.31L444.31,90c0-.9.33-3,2.65-6.74l.77-1.24c0-3.25,0-4.87,0-8.12H406.32c0,3.15,0,4.72,0,7.87l.64,1.14c1.06,1.91,1.87,3.48,2.37,4.64a5.52,5.52,0,0,1,.46,2.27q.09,49.87.17,99.76c0,.89-.35,2.94-2.71,6.62-.31.49-.46.74-.77,1.22,0,3.21,0,4.81,0,8Q427.46,205.88,448.36,207.16Zm5.34.38-.05-8.11.74-1.18c2.09-3.33,2.52-5.46,2.51-6.66q-.28-50.76-.58-101.53c0-.93-.35-3.07-2.6-6.92L453,81.93,453,73.86l43.63,0a40.41,40.41,0,0,1,21.61,5.84A39.62,39.62,0,0,1,532.94,96.3,54.57,54.57,0,0,1,538.2,120c.1,9.08-1.64,17.18-5.18,23.94a34.12,34.12,0,0,1-15.74,15.34c-6.73,3.22-14.54,4.4-23.2,3.7l-2.47-.19.27,31.84c0,1.76,1,4.08,3,6.76L496,203c0,3.5.05,5.25.08,8.75C482,210.1,467.87,208.69,453.7,207.54Zm39.94-73.71c1.6.09,3.48-.17,5.29-2.78,1.91-2.77,2.86-6.87,2.81-12.17s-1.32-9.61-3.76-12.65a10.22,10.22,0,0,0-6.87-3.88q.13,15.68.26,31.36Zm120.78,101.4q-.24-21.81-.5-43.63c-3.5-.7-5.25-1-8.76-1.71l-1.57,1a47.26,47.26,0,0,1-7.5,4.09,4.18,4.18,0,0,1-2.31.16c-5.75-1.1-8.63-1.63-14.38-2.66l-1.17-100c0-1.33.42-3.72,2.56-7.62l.79-1.45c0-3.75-.06-5.63-.11-9.38L540.11,74l.09,8.78.76,1.35c2.13,3.8,2.59,6.16,2.6,7.47q.62,55.11,1.21,110.22c0,1.3-.4,3.59-2.46,7l-.73,1.2.09,8.79C566.16,223.38,590.33,228.86,614.42,235.23Zm75.9,24.3-.39-46c-3.3-.92-4.95-1.37-8.26-2.26l-1.35.57a46.52,46.52,0,0,1-7.26,2.62,6.22,6.22,0,0,1-3.15,0c-6.25-1.69-9.37-2.51-15.63-4.1q-.19-19.46-.4-38.91l2.82.52c1.15.21,3.81,1.09,8.77,4.89l1.22.93c3.54.71,5.31,1.06,8.85,1.79l-.42-45-8.86-1-1.21.56c-4.91,2.25-7.57,2.33-8.71,2.19l-2.83-.33c-.1-9.93-.15-14.9-.26-24.84,5,.35,7.45.53,12.42.9.7.06,3.57.55,11,5.74l1.27.89,8.17.74-.39-45q-35.36-.12-70.72-.2c0,3.92.06,5.88.11,9.81l.75,1.5c2.14,4.26,2.61,6.92,2.62,8.37l1.41,123.31c0,1.46-.39,4-2.43,7.66l-.72,1.3c0,3.93.07,5.89.11,9.82C641.65,242.89,666.06,250.76,690.32,259.53Zm4.28,1.59-.1-11.87.93-1.56a15.55,15.55,0,0,0,2.41-8q-.57-71.28-1.13-142.55c0-1.27-.38-4.24-2.75-9.62l-.79-1.77c0-4.55,0-6.83-.09-11.37l43.61.15c18.73.59,28.48,15.33,35.2,30C783,128.79,784,159.22,784,186.13c0,24.75-1.78,54-13.63,76.12-7.64,14.29-23.61,19.28-38.5,13.72l-.11,0Q713.32,268.13,694.6,261.12Zm37.22-26.31c2.84.38,6.79-.93,10.08-10.32,5.16-14.73,5.33-31.48,5.31-46.89s-.51-31.77-4.29-47c-1.11-4.42-3.55-11.89-6.59-12.18l-5.12-.48Q731.51,176.4,731.82,234.81Z"/><path class="a" d="M355.78,48.93V46.67l.24-.35a9.53,9.53,0,0,0,1-1.66,2.65,2.65,0,0,0,.25-1.13V9.87h-2.12a7.44,7.44,0,0,0-3.39,1.33l-1.08.72h-2.05V0h27.82V11.92h-2.06l-1.13-.76a7.43,7.43,0,0,0-3.33-1.29h-2.12V43.53a2.83,2.83,0,0,0,.24,1.13,11.54,11.54,0,0,0,1,1.66l.25.35v2.26Zm51.9,0V46.67l-.24-.35a4.4,4.4,0,0,1-.88-2.46V5.07a2.51,2.51,0,0,1,.17-.93,15.81,15.81,0,0,1,.79-1.66l.16-.3V0H394.84V2.2l.17.31a6.21,6.21,0,0,1,1,2.89V17.68h-5.36V5.4a6.21,6.21,0,0,1,1-2.89l.18-.31V0H378.61V2.2l.17.31a6.21,6.21,0,0,1,1,2.89V43.53a6.18,6.18,0,0,1-1,2.89l-.17.32v2.19h13.24V46.77l-.15-.29c-.37-.75-.66-1.37-.84-1.83a2.93,2.93,0,0,1-.2-1.12v-16H396v16a6.18,6.18,0,0,1-1,2.89l-.17.32v2.19Zm27.18,0V37.8h-2l-.31.18a28.47,28.47,0,0,1-2.6,1.31,3.45,3.45,0,0,1-1.35.3h-6.09V26.9h1.67a8.18,8.18,0,0,1,3.3,1l.28.13H430V16.82h-2.21l-.28.14a8.36,8.36,0,0,1-3.3,1h-1.67V9.35h5c.45,0,1.57.18,4.07,1.44l.29.14h2V0H410.87V2.19l.17.31A6.43,6.43,0,0,1,412,5.4V43.53a6.4,6.4,0,0,1-.95,2.9l-.17.31v2.19Z"/><path class="a" d="M611.42,301.33a14.13,14.13,0,0,0-5.86-2.9c-5.95-1.74-8.93-2.58-14.9-4.19-.91,3.38-1.36,5.07-2.27,8.44,5.9,1.59,8.84,2.42,14.72,4.13a13.46,13.46,0,0,0,6.43.64,3.67,3.67,0,0,0,3-2.48A3.46,3.46,0,0,0,611.42,301.33Z"/><path class="a" d="M675.72,311.48c-13.48-5.17-22.77-22.26-19.4-36.16l.25-.71c-172.54-58.75-356.66-58.75-529.19,0l.25.71c4.8,14.26-7.24,30.41-19.4,36.16l-.81.32q9.14,23.1,18.29,46.2l.76-.3c12.81-4,30.79,2,35.5,15.72l.25.72c150.1-50.9,309.41-50.9,459.51,0l.25-.72c5.48-12.45,22.19-21.1,35.5-15.72l.76.3q9.13-23.1,18.29-46.2ZM215.9,327.05c-14.86,3.86-29.56,8-44.22,12.58l-.22-.69a3.66,3.66,0,0,0,1.28-3.92q-5.69-18-11.38-36.1c-.43-1.38-1.57-2.19-3.43-2.42l-.22-.69c15-4.77,30.2-9.16,45.5-13l2.75,10.9-.78.19a4.18,4.18,0,0,0-4.2-1.23c-9.21,2.37-18.4,4.93-27.51,7.68,1,3.32,1.49,5,2.49,8.31,6-1.8,9-2.67,15-4.34a4.14,4.14,0,0,0,3-3.14l.78-.21c1.4,5.2,2.11,7.8,3.51,13l-.76.21a4,4,0,0,0-4.14-1.18c-6,1.65-8.94,2.5-14.87,4.28,1.18,3.95,1.77,5.93,3,9.88,9.24-2.79,18.58-5.38,27.94-7.76a4,4,0,0,0,3-3.06l.76-.19C214.26,320.52,214.81,322.7,215.9,327.05Zm56.35-57.6c-1.54,1-2.19,2.27-2,3.7q3,18.69,6,37.37a3.68,3.68,0,0,0,2.88,2.93l.11.71c-6,.95-9,1.46-15,2.53q-14.36-13.85-29.42-26.91c2.33,11,3.49,16.43,5.81,27.38.3,1.41,1.34,2.33,3.1,2.77l.15.71c-6,1.25-9,1.91-15,3.29l-.16-.7a3.69,3.69,0,0,0,1.59-3.8q-4.2-18.45-8.39-36.9c-.33-1.41-1.4-2.32-3.22-2.7l-.16-.71c6.37-1.47,9.56-2.17,15.95-3.5q15.2,13,29.68,26.87c-1.93-11-2.9-16.5-4.83-27.5-.25-1.42-1.27-2.38-3.07-2.86l-.12-.71c6.39-1.14,9.59-1.68,16-2.69ZM342.53,296a22.24,22.24,0,0,1-8.93,9.55,35.1,35.1,0,0,1-14.38,4.31,32.48,32.48,0,0,1-13.53-1.49,27.39,27.39,0,0,1-11.41-7,20.43,20.43,0,0,1-5.72-11.75,20,20,0,0,1,2.26-12.68,25.75,25.75,0,0,1,9.86-9.79,37.23,37.23,0,0,1,15.24-4.74,31.76,31.76,0,0,1,12.38.92,40.33,40.33,0,0,1,10.15,4.89,5.69,5.69,0,0,0,3.53,1,6,6,0,0,0,1.09-.2l.55.56c-4.28,3.35-6.4,5-10.6,8.45a27.07,27.07,0,0,0-6.76-5.21,15.75,15.75,0,0,0-9.33-1.67,20.79,20.79,0,0,0-8.85,2.87,16,16,0,0,0-5.92,6.08,12.87,12.87,0,0,0-1.46,7.85,13.44,13.44,0,0,0,3.33,7.44,16.13,16.13,0,0,0,7,4.59,20.58,20.58,0,0,0,8.89,1,16.41,16.41,0,0,0,9.33-3.56,15.68,15.68,0,0,0,4.85-7c-5.53.43-8.29.67-13.81,1.21a4,4,0,0,0-3.4,2.58l-.78.08c-.43-4.1-.64-6.15-1.06-10.26,10-1.05,20-1.88,30-2.49A28.38,28.38,0,0,1,342.53,296Zm31.18-35.65c-1.67.79-2.47,1.93-2.43,3.42l1,37.83a3.59,3.59,0,0,0,2.46,3.29l0,.72c-6.11.14-9.16.25-15.27.52l0-.72a3.69,3.69,0,0,0,2.23-3.45l-1.57-37.81c-.06-1.44-.94-2.53-2.66-3.24l0-.72c6.49-.29,9.74-.4,16.24-.56Zm68.37,1.42c-1.73.68-2.63,1.74-2.72,3.18L437,302.68a3.68,3.68,0,0,0,2.16,3.49l0,.72c-6.08-.39-9.11-.56-15.19-.83Q413,289.41,401.26,273.35c-.14,11.2-.21,16.79-.34,28a3.67,3.67,0,0,0,2.4,3.38v.72c-6.11-.09-9.17-.11-15.28-.07v-.73a3.65,3.65,0,0,0,2.36-3.36l-.08-37.84c0-1.44-.84-2.56-2.52-3.34v-.72c6.5,0,9.75,0,16.25.08q11.89,16.07,23,32.73c.53-11.16.8-16.73,1.32-27.89.07-1.44-.71-2.6-2.36-3.46l0-.73c6.46.29,9.69.47,16.15.89Zm55.25,51.33c-15.08-2.09-30.15-3.82-45.31-5.2l.06-.72a3.68,3.68,0,0,0,2.65-3.14q1.63-18.86,3.26-37.71.18-2.16-2.23-3.55l.06-.72c15.6,1.32,31.17,3,46.65,5.31-.64,4.45-1,6.67-1.61,11.12l-.8-.11a4.12,4.12,0,0,0-3.39-2.74q-14-2-28.15-3.37l-.87,8.63c6.18.62,9.27,1,15.44,1.72a4.12,4.12,0,0,0,4-1.76l.79.1c-.68,5.34-1,8-1.71,13.36l-.78-.1A4,4,0,0,0,482,291.5c-6.09-.74-9.14-1.08-15.25-1.7-.41,4.11-.62,6.16-1,10.27q14.32,1.41,28.59,3.45a4,4,0,0,0,3.89-1.7l.78.11C498.31,306.38,498,308.6,497.33,313.05Zm58,10.95c-14.91-3.32-29.84-6.28-44.88-8.9l.11-.71a3.68,3.68,0,0,0,2.91-2.91q3.15-18.66,6.31-37.32c.24-1.42-.4-2.67-1.94-3.72,0-.28.07-.43.12-.71,15.48,2.59,30.91,5.57,46.2,9.11-1,4.38-1.5,6.57-2.51,11l-.79-.18a4.15,4.15,0,0,0-3.17-3c-9.24-2.07-18.55-4-27.86-5.66-.63,3.41-1,5.12-1.57,8.53,6.12,1.12,9.18,1.72,15.29,3a4.13,4.13,0,0,0,4.1-1.42l.78.16c-1.11,5.27-1.67,7.91-2.79,13.18l-.77-.16a4,4,0,0,0-3.13-2.94c-6-1.24-9.06-1.83-15.11-2.94-.75,4.06-1.12,6.09-1.87,10.15q14.21,2.58,28.3,5.78a4,4,0,0,0,4-1.38l.77.18ZM608,334c.32,1.54,1.47,3.09,3.46,4.6l-.22.68c-6.46-2-9.69-3-16.19-4.92l.21-.7a1.65,1.65,0,0,0,1.06-1.12,4.52,4.52,0,0,0,0-2.05c-1.08-7-1.65-10.54-2.87-17.57-2.89-.81-4.34-1.21-7.25-2-1.68,6.21-2.51,9.32-4.19,15.54a3.67,3.67,0,0,0,1.43,3.86l-.19.7c-5.94-1.63-8.92-2.41-14.89-3.91.07-.28.1-.42.18-.7a3.68,3.68,0,0,0,3.21-2.64q4.66-18.34,9.32-36.68c.37-1.44-.19-2.74-1.7-3.89l.17-.7c10.55,2.73,21,5.59,31.47,8.6a20.18,20.18,0,0,1,7.71,4A12.53,12.53,0,0,1,622.6,301a11.06,11.06,0,0,1-.13,6.68,11.27,11.27,0,0,1-6.3,7.24c-3.08,1.38-6.94,1.67-11.61.92C605.7,322.68,606.88,328.78,608,334Z"/></svg>