<svg xmlns="http://www.w3.org/2000/svg" viewBox="0 0 511 511"><defs><style>.a{fill:#384146;}.b{fill:#fff;}</style></defs><path class="a" d="M358.21,21.48a255.57,255.57,0,0,0-205.42,468A253.87,253.87,0,0,0,252,511c1.22,0,2.45,0,3.67,0a255.41,255.41,0,0,0,183-433.64A254.56,254.56,0,0,0,358.21,21.48ZM506.64,259A251.24,251.24,0,0,1,22.73,350,251.07,251.07,0,0,1,255.39,4.34l3.6,0A250.94,250.94,0,0,1,506.64,259ZM425.85,89.82a236.8,236.8,0,1,1-74.82-52A236.85,236.85,0,0,1,425.85,89.82Z"/><path class="b" d="M252,145.05c-4.86-12.14-11.76-22-20.68-29.06a48.56,48.56,0,0,0-30.89-10.79l-62.66.24v18.3l1,2.7c3.2,8.58,3.67,13.32,3.67,15.41q0,114.14-.08,228.25c0,2.71-.62,7.79-3.55,16.91l-1,3.24v18.4q29.28-13.38,59-25.82c0-7,.05-10.57.08-17.61l-1.6-2.38c-2.65-3.94-4-7.95-4-11.52l.27-64.9,3.47-.93c12.23-3.27,23.31-10.09,33-19.42s18.22-23.39,22.81-35.46c5.4-14.22,7.37-29.4,8.12-44.43A103.76,103.76,0,0,0,252,145.05Zm-49.47,74c-2.63,5.86-5.32,7.09-7.59,7.5l-3.22.58.27-63.9c4.05.28,7.18,2.42,9.72,6.54,3.43,5.56,5.14,13.68,5.09,24.25S205.27,212.87,202.49,219Z"/><path class="b" d="M383.37,304.71a36.51,36.51,0,0,1-6.85-10.64q-11.34-29.83-22.08-59.87c6.66-6.25,12.53-14.41,17.7-23.83,6.43-11.71,10.3-28,10.35-41,.06-16.11-4.16-33.16-15.34-46.06A54.9,54.9,0,0,0,325,104.8l-62.12.18c-.05,6.15-.07,9.22-.13,15.37.42.92.63,1.38,1,2.3,2.94,6.5,3.54,10.51,3.52,12.77l-1.65,190.77c0,2.25-.68,6.49-3.71,14l-1.07,2.68-.13,15.37q29.07-10.15,58.45-19.34c.07-5.63.1-8.44.16-14.08-.38-.71-.56-1.07-.94-1.79-2.77-5.35-3.32-9.09-3.3-11.26q.23-20.52.44-41,8.87,31.95,18.1,63.82,25.51-7.5,51.34-14c.07-5.57.11-8.35.18-13.92Zm-57-111.43c-3.8,5-7.09,6-9.24,6.25l-.75.1.44-41.41c10.34.19,14.39,5.78,14.24,19.08C331,184,329.43,189.23,326.35,193.28Z"/><path class="b" d="M337.15,406.37a340.25,340.25,0,0,0-129.33,6.71L152.3,424.17c74.43-44.39,155.16-71.84,240.93-83.7Z"/></svg>