<svg xmlns="http://www.w3.org/2000/svg" viewBox="0 0 784.22 360.8"><defs><style>.a{fill:#291029;}</style></defs><path class="a" d="M0,286.6V272.94c.29-1,.43-1.45.72-2.41,2-6.78,2.47-10.55,2.47-12.56L3.25,88.41C3.25,86.86,2.92,83.34.7,77L0,75V61.37q21.81-.1,43.61-.18a32.46,32.46,0,0,1,21.5,8c6.21,5.23,11,12.57,14.39,21.59a81.89,81.89,0,0,1,4.76,30.56c-.52,11.16-1.89,22.43-5.65,33-3.19,9-9.14,19.4-15.88,26.35s-14.43,12-22.93,14.42l-2.42.7q-.09,24.09-.19,48.2A16.35,16.35,0,0,0,40,252.58l1.11,1.76,0,13.08Q20.35,276.67,0,286.6ZM39.79,151.33c1.58-.31,3.45-1.23,5.28-5.58,1.93-4.58,2.93-10.82,3-18.59s-1.15-13.88-3.54-18c-1.77-3.06-4-4.64-6.77-4.85l-.18,47.47Zm96.59,80.27q-6.45-23.67-12.59-47.41-.17,15.24-.31,30.47a19.08,19.08,0,0,0,2.3,8.37l.65,1.33c-.05,4.19-.07,6.28-.11,10.46q-20.47,6.84-40.68,14.36c0-4.56,0-6.85.09-11.41l.75-2c2.1-5.61,2.56-8.76,2.57-10.43q.58-70.86,1.15-141.72c0-1.67-.4-4.65-2.44-9.48-.29-.69-.44-1-.73-1.71,0-4.57.06-6.85.09-11.41l43.23-.14a37.16,37.16,0,0,1,29.32,13.74c7.78,9.58,10.72,22.24,10.68,34.21,0,9.68-2.73,21.78-7.21,30.47A70.67,70.67,0,0,1,150.82,157q7.52,22.31,15.37,44.48a27.37,27.37,0,0,0,4.77,7.9c.51.59.76.89,1.27,1.47,0,4.14-.07,6.2-.11,10.34Q154.14,226,136.38,231.6ZM124.84,131.26c1.5-.2,3.79-.92,6.44-4.64,2.14-3,3.21-6.88,3.26-11.87.1-9.88-2.72-14-9.91-14.18q-.16,15.39-.31,30.76ZM216,210.62l.1-9-.62-1.17a52.27,52.27,0,0,1-2.32-4.84,6.49,6.49,0,0,1-.42-2.5l1.32-114.23c0-1,.38-3.39,2.77-7.69.31-.56.47-.85.79-1.41l.1-9.13q-20.68,0-41.36.09c-.05,3.82-.07,5.73-.11,9.56.24.54.37.82.61,1.37,1,2.3,1.82,4.17,2.31,5.56A8,8,0,0,1,179.6,80q-.71,60.22-1.4,120.45c0,1.07-.39,3.61-2.78,8.71-.32.67-.48,1-.79,1.69,0,3.89-.07,5.84-.11,9.73Q195.19,215.22,216,210.62Zm94.63-14.72.84-119A14.13,14.13,0,0,1,313.85,70l.76-1.25.05-8.2-41.55,0L273,69.46,274.14,71a10.36,10.36,0,0,1,2.26,6.51c-.07,7.93-.11,11.89-.18,19.81Q266.8,79,257.7,60.61l-34.5,0-.1,9.07.75,1.37a26.24,26.24,0,0,1,2,4.35,9.92,9.92,0,0,1,.43,3.13q-.63,56.15-1.27,112.29c0,1-.38,3.29-2.74,7.75l-.83,1.58c0,3.72-.06,5.58-.11,9.31q20.88-4.19,41.85-7.59c0-3.61.06-5.42.09-9l-1-1.31a10.29,10.29,0,0,1-2.4-6.28l.45-44.17q16,28.53,32.66,56.69C300,197,303.57,196.59,310.64,195.9Zm75.49-4.18a41.13,41.13,0,0,0,11.67-3.92l2.58-1.47,2.07-32c-3.68,0-5.52-.05-9.2-.05l-1.61,1.07a64.11,64.11,0,0,1-9.22,4.87,27.83,27.83,0,0,1-11,2.36,11.66,11.66,0,0,1-8.3-3.07c-2.9-2.52-5.25-6.31-7-11.28a56.39,56.39,0,0,1-2.75-18.77,83.88,83.88,0,0,1,3-23.21c1.83-6.17,4.29-10.88,7.32-14A11.2,11.2,0,0,1,372,88.39a14.87,14.87,0,0,1,8.63,3,56.26,56.26,0,0,1,8.55,7c1,1,1.45,1.51,2.42,2.52l9.12-2q-.72-16.35-1.46-32.7l-1.67-1.49c-1.82-1.63-4.85-2.77-10.47-3.93A84.47,84.47,0,0,0,372,59.3c-9.49-.19-21.91,3.7-29.51,9.3-8.82,6.5-14.89,16-19.22,25.54-4.95,10.91-7,24.53-6.68,36.64.28,11.12,1.76,22.81,6.32,33.21,3.58,8.15,11.48,17.54,19.14,22.17,7.9,4.78,19.91,7.82,29.31,7.22A82.83,82.83,0,0,0,386.13,191.72Zm62.23,2.11c0-3.19,0-4.79,0-8l-.65-1.19q-1.64-3-2.42-4.85a5.74,5.74,0,0,1-.46-2.31l-.48-100.88c0-.9.33-3,2.65-6.74l.77-1.24c0-3.25,0-4.87,0-8.12H406.32c0,3.14,0,4.72,0,7.87l.64,1.14c1.06,1.91,1.87,3.48,2.37,4.64a5.48,5.48,0,0,1,.46,2.27q.09,49.88.17,99.76c0,.89-.35,2.93-2.71,6.62l-.77,1.22c0,3.21,0,4.81,0,8Q427.46,192.55,448.36,193.83Zm5.34.38-.05-8.11.74-1.18c2.09-3.33,2.52-5.46,2.51-6.66q-.28-50.77-.58-101.53c0-.93-.35-3.07-2.6-6.93-.29-.48-.43-.72-.71-1.2L453,60.53l43.63,0a40.41,40.41,0,0,1,21.61,5.84A39.65,39.65,0,0,1,532.94,83a54.6,54.6,0,0,1,5.26,23.72c.1,9.09-1.64,17.19-5.18,23.95A34.12,34.12,0,0,1,517.28,146c-6.73,3.22-14.54,4.4-23.2,3.7l-2.47-.19.27,31.84c0,1.75,1,4.08,3,6.76L496,189.7c0,3.5.05,5.24.08,8.74C482,196.77,467.87,195.36,453.7,194.21Zm39.94-73.71c1.6.09,3.48-.17,5.29-2.79s2.86-6.86,2.81-12.16S500.42,95.93,498,92.9A10.22,10.22,0,0,0,491.11,89q.13,15.67.26,31.36ZM614.42,221.9q-.24-21.83-.5-43.64c-3.5-.69-5.25-1-8.76-1.7l-1.57,1a48.28,48.28,0,0,1-7.5,4.09,4.18,4.18,0,0,1-2.31.16c-5.75-1.1-8.63-1.63-14.38-2.66l-1.17-100c0-1.33.42-3.71,2.56-7.61l.79-1.45c0-3.75-.06-5.63-.11-9.38l-41.36-.08.09,8.78c.3.54.46.81.76,1.34,2.13,3.81,2.59,6.17,2.6,7.48q.62,55.11,1.21,110.22c0,1.3-.4,3.58-2.46,7l-.73,1.21.09,8.79C566.16,210.05,590.33,215.53,614.42,221.9Zm75.9,24.29-.39-46c-3.3-.92-4.95-1.37-8.26-2.26l-1.35.57a46.52,46.52,0,0,1-7.26,2.62,6.22,6.22,0,0,1-3.15,0c-6.25-1.69-9.37-2.51-15.63-4.1q-.19-19.45-.4-38.91l2.82.52c1.15.21,3.81,1.09,8.77,4.89l1.22.93c3.54.7,5.31,1.06,8.85,1.79l-.42-45c-3.54-.43-5.32-.63-8.86-1l-1.21.55c-4.91,2.26-7.57,2.34-8.71,2.2l-2.83-.33c-.1-9.94-.15-14.9-.26-24.84,5,.35,7.45.53,12.42.9.7,0,3.57.54,11,5.74l1.27.89,8.17.74-.39-45q-35.36-.12-70.72-.21c0,3.93.06,5.89.11,9.82l.75,1.5c2.14,4.26,2.61,6.91,2.62,8.37l1.41,123.31c0,1.46-.39,4-2.43,7.66l-.72,1.3c0,3.93.07,5.89.11,9.82C641.65,229.56,666.06,237.43,690.32,246.19Zm4.28,1.59-.1-11.86.93-1.56a15.58,15.58,0,0,0,2.41-8q-.57-71.26-1.13-142.54c0-1.28-.38-4.25-2.75-9.62-.32-.71-.47-1.07-.79-1.77,0-4.55,0-6.83-.09-11.38l43.61.16c18.73.59,28.48,15.32,35.2,30C783,115.46,784,145.89,784,172.8c0,24.75-1.78,53.94-13.63,76.12-7.64,14.29-23.61,19.27-38.5,13.72l-.11,0Q713.32,254.8,694.6,247.78Zm37.22-26.3c2.84.38,6.79-.93,10.08-10.32,5.16-14.73,5.33-31.48,5.31-46.89s-.51-31.77-4.29-47c-1.11-4.42-3.55-11.89-6.59-12.18l-5.12-.48Q731.51,163.07,731.82,221.48Z"/><path class="a" d="M365.82,35.6V34l.18-.25a8.24,8.24,0,0,0,.7-1.21,2,2,0,0,0,.18-.82V7.18h-1.55a5.46,5.46,0,0,0-2.47,1l-.78.52h-1.49V0h20.24V8.67h-1.5l-.82-.55a5.33,5.33,0,0,0-2.43-.94h-1.54V31.67a2,2,0,0,0,.18.82,7.42,7.42,0,0,0,.7,1.21l.18.25V35.6Zm37.76,0V34l-.17-.26a3.2,3.2,0,0,1-.65-1.79V3.69a2,2,0,0,1,.13-.68,12.46,12.46,0,0,1,.57-1.21l.12-.22V0h-9.34V1.6l.12.23a4.56,4.56,0,0,1,.74,2.1v8.93h-3.9V3.93a4.5,4.5,0,0,1,.73-2.1l.13-.23V0h-9.63V1.6l.13.23a4.62,4.62,0,0,1,.73,2.1V31.67a4.62,4.62,0,0,1-.73,2.1l-.13.23v1.6h9.63V34l-.11-.21c-.27-.55-.47-1-.61-1.34a2.16,2.16,0,0,1-.14-.81V20h3.9V31.67a4.56,4.56,0,0,1-.74,2.1l-.12.23v1.6Zm19.78,0V27.5h-1.45l-.23.13c-.83.46-1.47.78-1.89,1a2.58,2.58,0,0,1-1,.21h-4.43V19.57h1.21a5.89,5.89,0,0,1,2.4.72l.21.09h1.61V12.24H418.2l-.21.1a6.07,6.07,0,0,1-2.4.72h-1.21V6.8H418a7.77,7.77,0,0,1,3,1l.21.1h1.43V0H405.9V1.59l.12.23a4.67,4.67,0,0,1,.7,2.11V31.67a4.63,4.63,0,0,1-.7,2.11l-.12.23V35.6Z"/><path class="a" d="M611.42,288a14.24,14.24,0,0,0-5.86-2.91c-5.95-1.73-8.93-2.57-14.9-4.18l-2.27,8.44c5.9,1.59,8.84,2.42,14.72,4.13a13.46,13.46,0,0,0,6.43.64,3.68,3.68,0,0,0,3-2.49A3.45,3.45,0,0,0,611.42,288Z"/><path class="a" d="M675.72,298.15C662.24,293,653,275.89,656.32,262l.25-.71c-172.54-58.75-356.66-58.75-529.19,0l.25.71c4.8,14.26-7.24,30.41-19.4,36.16-.33.12-.49.19-.81.32q9.14,23.1,18.29,46.2l.76-.3c12.81-4,30.79,2,35.5,15.72l.25.71c150.1-50.89,309.41-50.89,459.51,0l.25-.71c5.48-12.45,22.19-21.11,35.5-15.72l.76.3q9.13-23.1,18.29-46.2ZM215.9,313.72c-14.86,3.86-29.56,8-44.22,12.57l-.22-.68a3.67,3.67,0,0,0,1.28-3.93q-5.69-18-11.38-36.09c-.43-1.38-1.57-2.19-3.43-2.42l-.22-.69c15-4.77,30.2-9.16,45.5-13L206,280.38l-.78.2a4.16,4.16,0,0,0-4.2-1.23c-9.21,2.37-18.4,4.93-27.51,7.68,1,3.32,1.49,5,2.49,8.3,6-1.79,9-2.66,15-4.33a4.14,4.14,0,0,0,3-3.14l.78-.21c1.4,5.2,2.11,7.8,3.51,13l-.76.21a4,4,0,0,0-4.14-1.18c-6,1.64-8.94,2.5-14.87,4.28,1.18,4,1.77,5.93,3,9.88,9.24-2.79,18.58-5.38,27.94-7.76a4,4,0,0,0,3-3.07l.76-.19Zm56.35-57.61c-1.54,1-2.19,2.28-2,3.71q3,18.68,6,37.36a3.68,3.68,0,0,0,2.88,2.94l.11.71c-6,.95-9,1.46-15,2.53q-14.36-13.85-29.42-26.91c2.33,10.95,3.49,16.42,5.81,27.38.3,1.41,1.34,2.33,3.1,2.77l.15.71c-6,1.25-9,1.91-15,3.29l-.16-.7a3.69,3.69,0,0,0,1.59-3.8q-4.2-18.45-8.39-36.9c-.33-1.41-1.4-2.32-3.22-2.71l-.16-.7c6.37-1.47,9.56-2.17,15.95-3.51q15.2,13.05,29.68,26.88c-1.93-11-2.9-16.5-4.83-27.5-.25-1.42-1.27-2.38-3.07-2.86l-.12-.71c6.39-1.14,9.59-1.68,16-2.69Zm70.28,26.51a22.24,22.24,0,0,1-8.93,9.55,35.1,35.1,0,0,1-14.38,4.3A32.48,32.48,0,0,1,305.69,295a27.39,27.39,0,0,1-11.41-7,20.46,20.46,0,0,1-5.72-11.75,20,20,0,0,1,2.26-12.68,25.75,25.75,0,0,1,9.86-9.79A37.23,37.23,0,0,1,315.92,249a31.76,31.76,0,0,1,12.38.92,40,40,0,0,1,10.15,4.89,5.75,5.75,0,0,0,3.53,1,7,7,0,0,0,1.09-.2l.55.55c-4.28,3.36-6.4,5.05-10.6,8.46a27.07,27.07,0,0,0-6.76-5.21,15.68,15.68,0,0,0-9.33-1.67,20.79,20.79,0,0,0-8.85,2.87,15.81,15.81,0,0,0-5.92,6.08,12.87,12.87,0,0,0-1.46,7.85A13.47,13.47,0,0,0,304,282a16.22,16.22,0,0,0,7,4.59,20.74,20.74,0,0,0,8.89,1,16.41,16.41,0,0,0,9.33-3.56,15.73,15.73,0,0,0,4.85-7c-5.53.43-8.29.67-13.81,1.21a4,4,0,0,0-3.4,2.58l-.78.08c-.43-4.1-.64-6.16-1.06-10.26,10-1.05,20-1.88,30-2.49A28.38,28.38,0,0,1,342.53,282.62ZM373.71,247c-1.67.79-2.47,1.93-2.43,3.42l1,37.83a3.6,3.6,0,0,0,2.46,3.29l0,.72c-6.11.14-9.16.25-15.27.52l0-.72a3.69,3.69,0,0,0,2.23-3.45l-1.57-37.81c-.06-1.45-.94-2.53-2.66-3.24l0-.72c6.49-.3,9.74-.41,16.24-.56Zm68.37,1.42c-1.73.67-2.63,1.74-2.72,3.18L437,289.34a3.69,3.69,0,0,0,2.16,3.5l0,.72c-6.08-.4-9.11-.56-15.19-.83Q413,276.08,401.26,260c-.14,11.19-.21,16.79-.34,28a3.67,3.67,0,0,0,2.4,3.38v.72C397.2,292,394.14,292,388,292v-.72a3.65,3.65,0,0,0,2.36-3.36l-.08-37.84c0-1.45-.84-2.56-2.52-3.34V246c6.5,0,9.75,0,16.25.09q11.89,16.06,23,32.73c.53-11.16.8-16.74,1.32-27.89.07-1.45-.71-2.6-2.36-3.47l0-.72c6.46.29,9.69.46,16.15.89Zm55.25,51.33c-15.08-2.09-30.15-3.82-45.31-5.21l.06-.72a3.66,3.66,0,0,0,2.65-3.13Q456.37,271.8,458,253q.18-2.16-2.23-3.55l.06-.72c15.6,1.32,31.17,3,46.65,5.31-.64,4.45-1,6.67-1.61,11.12l-.8-.12a4.1,4.1,0,0,0-3.39-2.73q-14-2-28.15-3.37l-.87,8.63c6.18.62,9.27,1,15.44,1.72a4.14,4.14,0,0,0,4-1.76l.79.1c-.68,5.34-1,8-1.71,13.36l-.78-.1a4,4,0,0,0-3.35-2.67c-6.09-.74-9.14-1.08-15.25-1.7-.41,4.11-.62,6.16-1,10.26q14.32,1.42,28.59,3.46a4,4,0,0,0,3.89-1.7l.78.11C498.31,293.05,498,295.27,497.33,299.72Zm58,10.95c-14.91-3.32-29.84-6.28-44.88-8.9l.11-.71a3.68,3.68,0,0,0,2.91-2.91q3.15-18.66,6.31-37.32c.24-1.42-.4-2.67-1.94-3.72,0-.29.07-.43.12-.71,15.48,2.59,30.91,5.57,46.2,9.1-1,4.39-1.5,6.58-2.51,11l-.79-.18a4.13,4.13,0,0,0-3.17-3c-9.24-2.08-18.55-4-27.86-5.66-.63,3.41-1,5.11-1.57,8.53,6.12,1.12,9.18,1.72,15.29,3a4.13,4.13,0,0,0,4.1-1.43l.78.17c-1.11,5.27-1.67,7.91-2.79,13.18l-.77-.17a4,4,0,0,0-3.13-2.93c-6-1.24-9.06-1.83-15.11-2.94-.75,4.06-1.12,6.09-1.87,10.14q14.21,2.58,28.3,5.79a4,4,0,0,0,4-1.38l.77.18Zm52.6,10c.32,1.54,1.47,3.09,3.46,4.59-.09.28-.13.42-.22.69-6.46-2.05-9.69-3-16.19-4.92l.21-.7a1.65,1.65,0,0,0,1.06-1.13,4.51,4.51,0,0,0,0-2.05c-1.08-7-1.65-10.53-2.87-17.56-2.89-.81-4.34-1.21-7.25-2-1.68,6.22-2.51,9.33-4.19,15.54A3.68,3.68,0,0,0,583.4,317l-.19.69c-5.94-1.62-8.92-2.4-14.89-3.9.07-.28.1-.42.18-.7,1.78-.37,2.85-1.24,3.21-2.64q4.66-18.34,9.32-36.68c.37-1.44-.19-2.74-1.7-3.89l.17-.7c10.55,2.73,21,5.59,31.47,8.6a20.3,20.3,0,0,1,7.71,4,12.5,12.5,0,0,1,3.92,5.84,11.06,11.06,0,0,1-.13,6.68,11.27,11.27,0,0,1-6.3,7.24c-3.08,1.38-6.94,1.67-11.61.92C605.7,309.34,606.88,315.45,608,320.67Z"/><polygon class="a" points="332.15 17.8 336.15 13.8 0.22 13.8 0.22 21.8 336.15 21.8 332.15 17.8"/><polygon class="a" points="452.29 17.8 448.29 21.8 784.22 21.8 784.22 13.8 448.29 13.8 452.29 17.8"/></svg>